<svg width="24" height="25" viewBox="0 0 24 25" fill="none" xmlns="http://www.w3.org/2000/svg">
<path d="M13.028 2.5C14.153 2.503 14.724 2.509 15.217 2.523L15.411 2.53C15.635 2.538 15.856 2.548 16.123 2.56C17.187 2.61 17.913 2.778 18.55 3.025C19.21 3.279 19.766 3.623 20.322 4.178C20.8307 4.67773 21.2242 5.28247 21.475 5.95C21.722 6.587 21.89 7.313 21.94 8.378C21.952 8.644 21.962 8.865 21.97 9.09L21.976 9.284C21.991 9.776 21.997 10.347 21.999 11.472L22 12.218V13.528C22.0024 14.2574 21.9948 14.9868 21.977 15.716L21.971 15.91C21.963 16.135 21.953 16.356 21.941 16.622C21.891 17.687 21.721 18.412 21.475 19.05C21.2242 19.7175 20.8307 20.3223 20.322 20.822C19.8223 21.3307 19.2175 21.7242 18.55 21.975C17.913 22.222 17.187 22.39 16.123 22.44L15.411 22.47L15.217 22.476C14.724 22.49 14.153 22.497 13.028 22.499L12.282 22.5H10.973C10.2432 22.5026 9.51351 22.4949 8.78399 22.477L8.58999 22.471C8.3526 22.462 8.11526 22.4517 7.87799 22.44C6.81399 22.39 6.08799 22.222 5.44999 21.975C4.78282 21.7241 4.17843 21.3306 3.67899 20.822C3.16993 20.3224 2.7761 19.7176 2.52499 19.05C2.27799 18.413 2.10999 17.687 2.05999 16.622L2.02999 15.91L2.02499 15.716C2.00656 14.9868 1.99822 14.2574 1.99999 13.528V11.472C1.99722 10.7426 2.00456 10.0132 2.02199 9.284L2.02899 9.09C2.03699 8.865 2.04699 8.644 2.05899 8.378C2.10899 7.313 2.27699 6.588 2.52399 5.95C2.77568 5.2822 3.17021 4.67744 3.67999 4.178C4.17914 3.66955 4.78318 3.27607 5.44999 3.025C6.08799 2.778 6.81299 2.61 7.87799 2.56C8.14399 2.548 8.36599 2.538 8.58999 2.53L8.78399 2.524C9.51318 2.50623 10.2426 2.49857 10.972 2.501L13.028 2.5ZM12 7.5C10.6739 7.5 9.40214 8.02678 8.46446 8.96447C7.52677 9.90215 6.99999 11.1739 6.99999 12.5C6.99999 13.8261 7.52677 15.0979 8.46446 16.0355C9.40214 16.9732 10.6739 17.5 12 17.5C13.3261 17.5 14.5978 16.9732 15.5355 16.0355C16.4732 15.0979 17 13.8261 17 12.5C17 11.1739 16.4732 9.90215 15.5355 8.96447C14.5978 8.02678 13.3261 7.5 12 7.5ZM12 9.5C12.394 9.49993 12.7841 9.57747 13.1481 9.72817C13.5121 9.87887 13.8428 10.0998 14.1215 10.3783C14.4001 10.6569 14.6211 10.9875 14.7719 11.3515C14.9228 11.7154 15.0004 12.1055 15.0005 12.4995C15.0006 12.8935 14.923 13.2836 14.7723 13.6476C14.6216 14.0116 14.4007 14.3423 14.1222 14.621C13.8436 14.8996 13.513 15.1206 13.149 15.2714C12.785 15.4223 12.395 15.4999 12.001 15.5C11.2053 15.5 10.4423 15.1839 9.87967 14.6213C9.31706 14.0587 9.00099 13.2956 9.00099 12.5C9.00099 11.7044 9.31706 10.9413 9.87967 10.3787C10.4423 9.81607 11.2053 9.5 12.001 9.5M17.251 6C16.9195 6 16.6015 6.1317 16.3671 6.36612C16.1327 6.60054 16.001 6.91848 16.001 7.25C16.001 7.58152 16.1327 7.89946 16.3671 8.13388C16.6015 8.3683 16.9195 8.5 17.251 8.5C17.5825 8.5 17.9005 8.3683 18.1349 8.13388C18.3693 7.89946 18.501 7.58152 18.501 7.25C18.501 6.91848 18.3693 6.60054 18.1349 6.36612C17.9005 6.1317 17.5825 6 17.251 6Z" fill="#495E57"/>
</svg>
